# xmcd
#
# Track frame offsets: 
#        150
#        16912
#        35325
#        50056
#        69773
#        82141
#        102128
#        117060
#        137822
#        152534
#        169214
#        188040
#        199862
#        219388
#        235368
#        250567
#
# Disc length: 3577 seconds
#
# Revision: 1
# Processed by: cddbd v1.5.2PL0 Copyright (c) Steve Scherf et al.
# Submitted via: ExactAudioCopy v0.99pb1
#
DISCID=d10df710
DTITLE=Chris Whitley - Weed
DYEAR=2004
DGENRE=blues
TTITLE0=Power Down
TTITLE1=Living With The Law
TTITLE2=Know You
TTITLE3=Phone Call From Leavenworth
TTITLE4=Cool Wooden Cross
TTITLE5=Big Sky Country
TTITLE6=New Machine
TTITLE7=Clear Blue Sky
TTITLE8=Border Town
TTITLE9=Narcotic Prayer
TTITLE10=Kick The Stones
TTITLE11=Weightless
TTITLE12=I Forget You Every Day
TTITLE13=Make The Dirt Stick
TTITLE14=Dust Radio
TTITLE15=Can't Get Off (Instrumental)
EXTD=
EXTT0=
EXTT1=
EXTT2=
EXTT3=
EXTT4=
EXTT5=
EXTT6=
EXTT7=
EXTT8=
EXTT9=
EXTT10=
EXTT11=
EXTT12=
EXTT13=
EXTT14=
EXTT15=
PLAYORDER=
